<?xml version="1.0" encoding="utf-8"?>
<!-- Generator: Adobe Illustrator 16.0.0, SVG Export Plug-In . SVG Version: 6.00 Build 0)  -->
<!DOCTYPE svg PUBLIC "-//W3C//DTD SVG 1.1//EN" "http://www.w3.org/Graphics/SVG/1.1/DTD/svg11.dtd">
<svg version="1.1" id="Layer_1" xmlns="http://www.w3.org/2000/svg" xmlns:xlink="http://www.w3.org/1999/xlink" x="0px" y="0px"
	 width="960px" height="560px" viewBox="0 0 960 560" enable-background="new 0 0 960 560" xml:space="preserve">
<path fill="#8ABA9E" d="M594.5,131.75c-18.25-0.25-8.25-30.75-8.25-30.75C616.75,131.25,594.5,131.75,594.5,131.75z M498.5,210.75
	c24.875-26.625,8.336-36.25,8.336-36.25C492.797,179.125,498.5,210.75,498.5,210.75z M451.75,225.125
	c11.875-15.125-0.875-23-0.875-23C435.375,211.875,451.75,225.125,451.75,225.125z M449,179.333c0,0,2.084,6.667,16.917-3
	c0,0,9.167-6.667,6.5-12.833c0,0-5.667-3.583-16.083,4.417C456.333,167.917,445.333,175.5,449,179.333z M570.75,148.813
	c-13,3.938-13.5,19.938-13.5,19.938c4.125,3.438,18.875-3.625,18.875-3.625c9.563-3.875,3.625-16.313,3.625-16.313
	C577.313,146.313,570.75,148.813,570.75,148.813z M665,242.5c10,1.167,16.792-15,16.792-15c3.583-13.167-3.458-13.583-3.458-13.583
	C667.084,214.667,665,239.25,665,239.25V242.5z M651.667,240.917c0,0-5.083-23.5-22.083-20.333c0,0-5.833,6.917,3.75,15.917
	C633.334,236.5,643.583,244.333,651.667,240.917z M371.667,180.833c3.167,11.917,17.417,15.5,17.417,15.5
	c5.167-6,0.917-15.25,0.917-15.25c-4.917-9.167-11.917-6-11.917-6C372.5,176.167,371.667,180.833,371.667,180.833z M385.833,137.25
	c-23.417,0.583-24.25,22.75-24.25,22.75C384,161.75,385.833,137.25,385.833,137.25z M343.333,283.5
	c4.5-10.167-2.167-15.748-2.167-15.748c-9.5-0.415-11.5,9.248-11.5,9.248c-5.333,11.5,2,18.333,2,18.333
	C339,295.999,343.333,283.5,343.333,283.5z M329.667,336.333c0,0-11.333-22.166-29.667-14.333
	C300,322,307.5,339.166,329.667,336.333z M472.375,412.75c-0.75-12.25-6.5-14.5-6.5-14.5C455.375,403.5,456,414,456,414
	c-1,10.75,6.625,16.5,6.625,16.5C472.125,426.75,472.375,412.75,472.375,412.75z M471.5,439.375c0,0-14.5-6.625-22,5.875
	l-4.375,5.75c0,0,7.75,6.25,22.125-1.75C467.25,449.25,474.25,445.125,471.5,439.375z M579.5,383.188
	c2.938,7.313,16.688,5.625,16.688,5.625c14.75-4,19.063-18.25,19.063-18.25C586.5,369.938,580,380.875,580,380.875L579.5,383.188z
	 M565.875,387.75c3.375-13.625-5.875-32-5.875-32c-18.875,17.875-1.125,41.875-1.125,41.875L565.875,387.75z M596.563,358.5
	L567.25,388l-1.875-0.938l-6.999,10.563l0.587,1.5c0,0-7.56,9.792-9.053,15.417l0.757,2.041c0,0,13.207-19.874,15.416-21.541
	l8.479-10.292l5.523-0.43l3.289-8.695l15.656-15.853L596.563,358.5z M656.719,271.063c9.719-16.938,8.656-28.813,8.656-28.813
	l0.563-4.75l-1.521,0.5l-0.292-3.813l0.292-5.021c-1.584-36.167-10.013-35.833-10.013-35.833l-0.82,2.833
	c10.5,3.833,7.249,54.417,7.249,54.417l-1.093,0.667L651,240h-3.5l4.167,4.195l6.833,9.195l1,2.516c1.5,2.25-4.5,14.031-4.5,14.031
	L656.719,271.063z M630.167,158.697l-1.559-2.576c-1.309-3.128-26.275-16.538-26.275-16.538L595,131h-2.075l7.573,10.333
	c-28.167-9.666-59.917,3-59.917,3l-0.671,1.833l4.577-0.333c30.583-10.917,53.486-3,53.486-3c-7-0.5-20.201,5.009-20.201,5.009
	l2.18,1.685c26.724-13.473,47.128,8.12,47.128,8.12L630.167,158.697z M526,152v-2l-3.125,1c0,0-39.541,28.5-46.542,66.667
	l1.667,0.667C478,218.333,483,183.5,526,152z M507,167v4.5l-2.119,3.967l1.976,1.075l1.518-2.792l1.875-8.974L507,167z M430.667,177
	l2.073,2.66c2.906,0.57,15.73,12.965,15.73,12.965l1.405,10.169l1.649-0.206l-1.016-9.964L462,204h1.5
	c-4.167-7-23.495-22.368-23.495-22.368l9.005-2.349l-0.738-0.848l-11.397,1.029L433.438,177H430.667z M471.625,441.221l10.313-2.583
	c0,0,3.594-2.004-1.031-2.129c0,0-9.141-0.157-14.891-3.282L465.587,429H462v3c0,0-12.375-1.5-23-8.25l-0.75,2.125
	c0,0,17,9.125,23.875,8.5l6.625,2.125l3.39,1.121l-0.89,2.629L471.625,441.221z M403.75,406.5c0,0-6.125-3.625-13.125-10.875
	L389,397.464c0,0,10.125,9.843,16.125,12.127L403.75,406.5z M371.852,380.096c0,0-28.076-23.803-41.409-62.137
	c0,0-0.971-18.979,3.362-25.813l-2.979,2.239c0,0-3.333,12.108-2,19.942c0,0-18.996-38.33-10.663-55.497l-4.499,4.001
	c0,0-1.166,17.501,13.334,55.334c0,0,9.834,19.834,12.667,24.834l-10.72-7.936l-1.224,0.269l13.163,12
	c0,0,17.114,25.457,33.114,37.222V381L371.852,380.096z M317.167,217.25c0,0,2.75-13.333,8.167-17.333l-2.5-1.333
	c0,0-5.75,8.5-8,18.25L317.167,217.25z M340.063,182.203c0,0,20.563-12.383,27.875-11.57c0,0,5.125,0.402,7.625,3.527l1.594,1.482
	l0.453-1.079c0,0-2.159-3.747-5.951-5.247c0,0,11.712-3.19,22.087-1.065l4.689-1.438c0,0-11.624-6.563-40.437,3
	c0,0,0.813-5.625,6.375-9.875l-1.562-0.563c0,0-4.813,3.566-8.813,10.25V171c0,0-11.188,5.875-15.125,9.75L340.063,182.203z"/>
<g>
	<path fill="#C0C0DA" d="M628.938,332.625c-2.313-21.375-18.188-8.375-18.188-8.375c-22.25-6.75-17,16.75-17,16.75
		C578,356,601,360.25,601,360.25c17.75,18.5,24-4.5,24-4.5C646.5,342.5,628.938,332.625,628.938,332.625z"/>
</g>
<g>
	<path fill="#FEA47D" d="M651.667,166c0,0-12.999-31.666-29.166-0.833c0,0-21.166,7.5-4,23.5c0,0-3.5,24.333,20.333,14.5
		c0,0,18.001,2.333,16.167-15.167C655.001,188,673.167,175,651.667,166z"/>
</g>
<g>
	<path fill="#9CBABD" d="M424.465,409.151c0,0-4.822,0.694-7.292,7.5c0,0,1.464,2.527,3.529-0.151l0.108-0.372
		c0,0,0.454-5.854,3.725-5.292C424.535,410.836,425.154,408.917,424.465,409.151z"/>
	<path fill="#9CBABD" d="M439.083,406.417c-1.333-26.583-20.75-10.917-20.75-10.917c-16.417-11.583-15.167,12.333-15.167,12.333
		c-14.583,13.916,7.083,24.25,7.083,24.25c9.167,27.333,25.083-3.25,25.083-3.25C458.417,417.999,439.083,406.417,439.083,406.417z"
		/>
</g>
<g>
	<path fill="#FC8F62" d="M320.667,221.333c-7.208-10.542-14.042-8.458-14.042-8.458c-8.875,1.875-10.375,15.875-10.375,15.875
		c-7,1.125-10.583,4.917-10.583,4.917c-10.333,14.333,6,19,6,19C299,281.334,318,260.333,318,260.333c24.667,6,16.652-17,16.652-17
		C348.637,226.667,320.667,221.333,320.667,221.333z"/>
</g>
<g>
	<path fill="#C8E8D3" d="M437.75,152.125c-5.125-21.625-22.25-8.375-22.25-8.375c-4.25-4.125-8.625-3.875-8.625-3.875
		c-14.125,3.875-8.75,19.75-8.75,19.75c-5,3.625-7.25,10.125-7.25,10.125C388.875,183,410,182.625,410,182.625
		c20.875,18.75,23.625-6.875,23.625-6.875C450,164.625,437.75,152.125,437.75,152.125z"/>
</g>
<path fill="#F97D9A" d="M342.333,209.667c0,0,19-2.333,7.333,7.667c0,0-8.667,3-15,2.333c0,0-0.667-16,7-19.333
	C341.667,200.333,347.669,199.577,342.333,209.667z M498.25,152c6,7,17.441-1.5,17.441-1.5c1.691-5-6.941-12-6.941-12
	c-8.197,1.24-3.5,8.25-3.5,8.25C494.998,146.52,498.25,152,498.25,152z M367.938,401.438c0,0-16.75-24.125-24.875-13.313
	c0,0-4.75,3.875,12.875,11.313c0,0-10.813,0.5-9.813,6.063C346.125,405.5,346.5,417,367.938,401.438z M605.084,293.664
	c-1.417,19.167,13.5,21.416,13.5,21.416c9.25-8.167,3.667-23.663,3.667-23.663c-4.333-6-8.167,3.917-8.167,3.917
	C607.084,286.421,605.084,293.664,605.084,293.664z M642.167,300.164c0,0,11.084-12.5,3.667-20.917c0,0-5.666-6.587-13,19.083
	c0,0-3.834,13.67-0.709,21.42c0,0,8.25,5.75,22-13c0,0,8.125-11.875,0-14.25C654.125,292.5,651.334,288.828,642.167,300.164z
	 M516.75,408.75c-16.125,11,7.5,42.75,7.5,42.75c33.375-17.875,24.625-35.25,24.625-35.25C539.5,404,528,425.125,528,425.125
	C525.25,405.5,516.75,408.75,516.75,408.75z M562.125,418.25c0,0-2.375-8.875-4.75-6.5c0,0-6.574,3.625,1.588,20.375
	c0,0,16.412-9,13.537-18.5C572.5,413.625,569.5,410.125,562.125,418.25z M505.5,441.25c0,0,0.375-3.008-3-3.629
	c0,0-2.5,0.004-3,2.879c0,0-0.363,3,3.006,4.25C502.506,444.75,505.5,444.875,505.5,441.25z M495.625,438.75
	c0,0-0.25-3.75-3.5-3.375c0,0-4.5,0.871-1.875,5.811C490.25,441.186,495,443.875,495.625,438.75z M525.871,379.238
	c0,0-5.74-7.173-6.961-4.044c0,0-4.564,5.96,9.639,18.021c0,0,11.414-14.834,4.965-22.379
	C533.514,370.836,529.36,368.836,525.871,379.238z M509.835,395.49c0,0-1.477-6.137-3.149-4.548c0,0-4.578,2.375,0.735,14.022
	c0,0,11.43-5.895,9.621-12.471C517.042,392.494,515.042,390.038,509.835,395.49z M499.9,359.119c0,0-2.028-14.238-6.165-10.994
	c0,0-10.897,4.402-1.353,31.965c0,0,27.196-10.91,24.509-26.214C516.892,353.876,512.886,347.874,499.9,359.119z M528.562,352.618
	c0,0-3.17-3.496-3.698-1.854c0,0-2.151,3.201,5.512,8.938c0,0,5.386-7.967,1.84-11.634
	C532.215,348.067,530.021,347.174,528.562,352.618z M627.327,269.588c0,0-3.805-7.891-5.608-5.247c0,0-5.514,4.567,5.11,18.809
	c0,0,13.778-11.349,9.395-19.742C636.224,263.409,632.789,260.664,627.327,269.588z M366.742,339.853c0,0-0.082-4.719-1.561-3.832
	c0,0-3.728,0.991-1.742,10.354c0,0,9.301-2.444,9.049-7.539C372.488,338.836,371.427,336.719,366.742,339.853z M569.651,193.684
	c0,0-5.751-7.228-6.988-4.087c0,0-4.606,5.98,9.639,18.147c0,0,11.521-14.881,5.058-22.486
	C577.359,185.258,573.19,183.235,569.651,193.684z M592.203,176.656c0,0-1.134-5.79-2.76-4.373c0,0-4.372,2.036,0.125,13.125
	c0,0,10.911-5.047,9.483-11.261C599.052,174.147,597.283,171.773,592.203,176.656z M535.383,167.365
	c-14.219,0.643-11.735,29.395-11.735,29.395c27.556,1.706,28.789-12.427,28.789-12.427c-1.12-11.193-16.352-2.497-16.352-2.497
	C541.902,168.608,535.383,167.365,535.383,167.365z M530,133.5c0,0-7.5-6.75-14-3c0,0-4.75,12.5,23,18.75c0,0,16-28,1.25-32
	C540.25,117.25,532,113.25,530,133.5z M339.938,178.688c-4.313-2.625-12,7.563-12,7.563c-3-13.125-7.063-11.625-7.063-11.625
	c-15.125,5.125,6,30.25,6,30.25C349.5,185.563,339.938,178.688,339.938,178.688z M385.5,377.75c0,0-7.75-24.125-14.438-19
	c0,0-11,1.5,0.5,20.563c0,0,7.938,17.75,16.75,21.25c0,0,23.188-22.813,8.875-40.125C397.188,360.438,386.75,354,385.5,377.75z"/>
</svg>
